<?xml version="1.0" encoding="utf-8"?>
<!-- Generator: Adobe Illustrator 16.0.0, SVG Export Plug-In . SVG Version: 6.00 Build 0)  -->
<!DOCTYPE svg PUBLIC "-//W3C//DTD SVG 1.1//EN" "http://www.w3.org/Graphics/SVG/1.1/DTD/svg11.dtd">
<svg version="1.1" id="Layer_1" xmlns="http://www.w3.org/2000/svg" xmlns:xlink="http://www.w3.org/1999/xlink" x="0px" y="0px"
	 width="24px" height="24px" viewBox="0 0 24 24" enable-background="new 0 0 24 24" xml:space="preserve">
<rect x="-1" fill="none" width="123" height="89"/>
<path fill="#217346" d="M24,12.006c0,1.101-0.144,2.161-0.43,3.182c-0.286,1.018-0.69,1.975-1.213,2.863
	c-0.521,0.892-1.148,1.701-1.878,2.431s-1.539,1.355-2.426,1.877c-0.888,0.522-1.843,0.928-2.866,1.213
	C14.164,23.857,13.102,24,12,24c-1.102,0-2.165-0.143-3.188-0.429c-1.023-0.285-1.979-0.69-2.866-1.213
	c-0.887-0.521-1.696-1.147-2.426-1.877s-1.356-1.539-1.878-2.431c-0.522-0.889-0.927-1.846-1.213-2.863
	C0.143,14.167,0,13.106,0,12.006s0.143-2.163,0.429-3.187c0.286-1.022,0.69-1.979,1.213-2.87c0.522-0.89,1.148-1.7,1.878-2.43
	s1.539-1.355,2.426-1.877C6.833,1.12,7.789,0.715,8.812,0.43C9.835,0.144,10.898,0,12,0c1.102,0,2.164,0.144,3.188,0.43
	c1.023,0.285,1.979,0.69,2.866,1.213C18.94,2.164,19.75,2.79,20.479,3.52s1.356,1.54,1.878,2.43c0.522,0.891,0.927,1.848,1.213,2.87
	C23.856,9.843,24,10.905,24,12.006z M12,1.718c-0.944,0-1.855,0.123-2.731,0.369C8.392,2.334,7.572,2.681,6.811,3.128
	C6.048,3.575,5.354,4.112,4.728,4.737c-0.626,0.626-1.163,1.319-1.61,2.081C2.671,7.58,2.325,8.399,2.083,9.274
	c-0.244,0.878-0.365,1.787-0.365,2.731s0.122,1.854,0.365,2.731c0.243,0.875,0.588,1.692,1.036,2.451
	c0.447,0.757,0.983,1.451,1.61,2.081c0.626,0.628,1.32,1.165,2.083,1.609c0.762,0.443,1.581,0.789,2.458,1.034
	c0.876,0.248,1.787,0.37,2.731,0.37s1.854-0.122,2.732-0.37c0.876-0.245,1.695-0.591,2.457-1.034
	c0.763-0.444,1.455-0.981,2.082-1.609c0.626-0.63,1.163-1.324,1.61-2.081c0.446-0.759,0.794-1.576,1.042-2.451
	c0.246-0.878,0.369-1.787,0.369-2.731s-0.123-1.854-0.369-2.731c-0.248-0.875-0.596-1.694-1.042-2.456
	c-0.447-0.762-0.984-1.455-1.61-2.081c-0.627-0.625-1.319-1.162-2.082-1.609c-0.762-0.447-1.581-0.794-2.457-1.041
	C13.854,1.841,12.944,1.718,12,1.718z M15.005,11l-4.067-4h2.78l5.151,5.006L13.718,17h-2.78l4.067-4H6v-2H15.005z"/>
</svg>
