<?xml version="1.0" encoding="utf-8"?>
<!-- Generator: Adobe Illustrator 16.0.0, SVG Export Plug-In . SVG Version: 6.00 Build 0)  -->
<!DOCTYPE svg PUBLIC "-//W3C//DTD SVG 1.1//EN" "http://www.w3.org/Graphics/SVG/1.1/DTD/svg11.dtd">
<svg version="1.1" id="Layer_1" xmlns="http://www.w3.org/2000/svg" xmlns:xlink="http://www.w3.org/1999/xlink" x="0px" y="0px"
	 width="32px" height="32px" viewBox="0 0 32 32" enable-background="new 0 0 32 32" xml:space="preserve">
<path opacity="0.75" fill="#FFFFFF" d="M15.875,31.5c-8.547,0-15.5-6.954-15.5-15.5c0-8.547,6.953-15.5,15.5-15.5
	c8.546,0,15.5,6.953,15.5,15.5C31.375,24.546,24.421,31.5,15.875,31.5z"/>
<g>
	<g>
		<rect x="8" y="8" fill="#217346" width="16" height="4"/>
	</g>
	<g>
		<rect x="8" y="12" fill="#217346" width="1" height="11"/>
	</g>
	<g>
		<rect x="23" y="12" fill="#217346" width="1" height="11"/>
	</g>
	<g>
		<rect x="18" y="12" fill="#217346" width="1" height="11"/>
	</g>
	<g>
		<rect x="13" y="12" fill="#217346" width="1" height="11"/>
	</g>
	<g>
		<rect x="8" y="15" fill="#217346" width="16" height="1"/>
	</g>
	<g>
		<rect x="8" y="19" fill="#217346" width="16" height="1"/>
	</g>
	<g>
		<rect x="8" y="23" fill="#217346" width="16" height="1"/>
	</g>
</g>
<path fill="#86BFA0" d="M15.875,1c8.271,0,15,6.729,15,15c0,8.271-6.729,15-15,15s-15-6.729-15-15C0.875,7.729,7.604,1,15.875,1
	 M15.875,0c-8.836,0-16,7.164-16,16c0,8.837,7.164,16,16,16c8.837,0,16-7.163,16-16C31.875,7.164,24.712,0,15.875,0L15.875,0z"/>
</svg>
