<?xml version="1.0" encoding="utf-8"?>
<!-- Generator: Adobe Illustrator 16.0.0, SVG Export Plug-In . SVG Version: 6.00 Build 0)  -->
<!DOCTYPE svg PUBLIC "-//W3C//DTD SVG 1.1//EN" "http://www.w3.org/Graphics/SVG/1.1/DTD/svg11.dtd">
<svg version="1.1" id="Layer_1" xmlns="http://www.w3.org/2000/svg" xmlns:xlink="http://www.w3.org/1999/xlink" x="0px" y="0px"
	 width="32px" height="32px" viewBox="0 0 32 32" enable-background="new 0 0 32 32" xml:space="preserve">
<path fill="#217346" d="M16,32C7.178,32,0,24.821,0,16C0,7.177,7.178,0,16,0c8.821,0,16,7.177,16,16C32,24.821,24.821,32,16,32z"/>
<g>
	<g>
		<rect x="8" y="8" fill="#FFFFFF" width="16" height="4"/>
	</g>
	<g>
		<rect x="8" y="12" fill="#FFFFFF" width="1" height="11"/>
	</g>
	<g>
		<rect x="23" y="12" fill="#FFFFFF" width="1" height="11"/>
	</g>
	<g>
		<rect x="18" y="12" fill="#FFFFFF" width="1" height="11"/>
	</g>
	<g>
		<rect x="13" y="12" fill="#FFFFFF" width="1" height="11"/>
	</g>
	<g>
		<rect x="8" y="15" fill="#FFFFFF" width="16" height="1"/>
	</g>
	<g>
		<rect x="8" y="19" fill="#FFFFFF" width="16" height="1"/>
	</g>
	<g>
		<rect x="8" y="23" fill="#FFFFFF" width="16" height="1"/>
	</g>
</g>
</svg>
