<?xml version="1.0" encoding="utf-8"?>
<!-- Generator: Adobe Illustrator 16.0.0, SVG Export Plug-In . SVG Version: 6.00 Build 0)  -->
<!DOCTYPE svg PUBLIC "-//W3C//DTD SVG 1.1//EN" "http://www.w3.org/Graphics/SVG/1.1/DTD/svg11.dtd">
<svg version="1.1" id="Layer_1" xmlns="http://www.w3.org/2000/svg" xmlns:xlink="http://www.w3.org/1999/xlink" x="0px" y="0px"
	 width="32px" height="32px" viewBox="0 0 32 32" enable-background="new 0 0 32 32" xml:space="preserve">
<path opacity="0.75" fill="#FFFFFF" d="M16,31.5C7.453,31.5,0.5,24.546,0.5,16S7.453,0.5,16,0.5c8.546,0,15.5,6.954,15.5,15.5
	S24.546,31.5,16,31.5z"/>
<g>
	<path fill="#217346" d="M21.597,16.313c-0.028,0.233-0.053,0.461-0.074,0.685c-0.021,0.223-0.06,0.443-0.116,0.662l1.783,1.411
		l-1.412,2.281l-2.007-0.827c-0.162,0.155-0.334,0.303-0.516,0.44c-0.18,0.138-0.362,0.267-0.546,0.387l0.223,2.196l-2.611,0.658
		l-0.807-1.963c-0.234-0.014-0.469-0.028-0.707-0.042c-0.236-0.015-0.479-0.057-0.727-0.128l-1.349,1.677l-2.261-1.422l0.785-1.889
		c-0.177-0.177-0.338-0.359-0.482-0.552c-0.146-0.191-0.275-0.396-0.389-0.615L8.23,19.507l-0.627-2.61l1.953-0.774
		c0-0.509,0.064-0.994,0.191-1.453l-1.72-1.348l1.423-2.26l1.975,0.774c0.142-0.128,0.294-0.253,0.457-0.377
		c0.162-0.124,0.328-0.242,0.498-0.355l-0.308-2.196l2.591-0.7l0.913,1.984c0.481,0,0.974,0.07,1.476,0.212l1.444-1.782l2.282,1.411
		l-0.85,2.026c0.142,0.183,0.281,0.364,0.42,0.541c0.138,0.177,0.256,0.357,0.354,0.541l2.294-0.255l0.605,2.578L21.597,16.313z
		 M15.609,12.515c-0.518,0-1.002,0.101-1.455,0.303c-0.453,0.201-0.848,0.472-1.184,0.812s-0.602,0.733-0.797,1.183
		c-0.194,0.449-0.291,0.922-0.291,1.417c0,0.516,0.1,1.001,0.303,1.453c0.201,0.453,0.472,0.85,0.812,1.188
		c0.34,0.34,0.734,0.606,1.184,0.801c0.45,0.195,0.923,0.292,1.417,0.292c0.518,0,1.004-0.099,1.46-0.297
		c0.457-0.198,0.854-0.467,1.189-0.807c0.336-0.338,0.602-0.731,0.796-1.178c0.194-0.445,0.292-0.916,0.292-1.411
		c0-0.523-0.099-1.013-0.297-1.47c-0.198-0.456-0.467-0.854-0.807-1.193c-0.341-0.34-0.736-0.606-1.189-0.801
		C16.588,12.612,16.111,12.515,15.609,12.515z M16.819,15.634c0.1,0.213,0.148,0.418,0.148,0.615c0,0.156-0.024,0.305-0.074,0.446
		c-0.12,0.36-0.341,0.622-0.659,0.785c-0.205,0.105-0.414,0.159-0.625,0.159c-0.071,0-0.141-0.008-0.207-0.021
		c-0.067-0.014-0.137-0.032-0.207-0.053c-0.348-0.113-0.609-0.34-0.787-0.68c-0.119-0.226-0.18-0.445-0.18-0.657
		c0-0.135,0.021-0.266,0.063-0.393c0.113-0.347,0.341-0.619,0.68-0.817c0.198-0.085,0.403-0.127,0.616-0.127
		c0.254,0,0.492,0.062,0.711,0.186S16.691,15.387,16.819,15.634z"/>
</g>
<path fill="#86BFA0" d="M16,1c8.271,0,15,6.729,15,15s-6.729,15-15,15S1,24.271,1,16S7.729,1,16,1 M16,0C7.164,0,0,7.164,0,16
	c0,8.837,7.164,16,16,16c8.837,0,16-7.163,16-16C32,7.164,24.837,0,16,0L16,0z"/>
</svg>
