<?xml version="1.0" encoding="utf-8"?>
<!-- Generator: Adobe Illustrator 16.0.0, SVG Export Plug-In . SVG Version: 6.00 Build 0)  -->
<!DOCTYPE svg PUBLIC "-//W3C//DTD SVG 1.1//EN" "http://www.w3.org/Graphics/SVG/1.1/DTD/svg11.dtd">
<svg version="1.1" id="Layer_1" xmlns="http://www.w3.org/2000/svg" xmlns:xlink="http://www.w3.org/1999/xlink" x="0px" y="0px"
	 width="24px" height="24px" viewBox="9.5 39.5 24 24" enable-background="new 9.5 39.5 24 24" xml:space="preserve">
<path fill="#217346" d="M32.5,51.508c0,1.01-0.133,1.979-0.395,2.916c-0.262,0.934-0.631,1.813-1.111,2.623
	c-0.479,0.818-1.053,1.559-1.723,2.229c-0.668,0.67-1.41,1.242-2.224,1.723c-0.813,0.479-1.69,0.852-2.627,1.109
	C23.484,62.369,22.51,62.5,21.5,62.5s-1.984-0.131-2.922-0.395c-0.938-0.26-1.814-0.631-2.628-1.111
	c-0.813-0.477-1.556-1.051-2.224-1.721c-0.668-0.668-1.243-1.41-1.721-2.229c-0.479-0.814-0.852-1.691-1.112-2.623
	c-0.262-0.936-0.394-1.906-0.394-2.914c0-1.01,0.132-1.983,0.395-2.924c0.261-0.937,0.631-1.813,1.112-2.63
	c0.477-0.816,1.052-1.557,1.722-2.227c0.668-0.67,1.41-1.242,2.224-1.722s1.688-0.851,2.628-1.11
	c0.938-0.263,1.912-0.396,2.923-0.396s1.983,0.133,2.922,0.396c0.938,0.26,1.813,0.631,2.63,1.11
	c0.811,0.479,1.553,1.052,2.221,1.722s1.242,1.412,1.723,2.229c0.479,0.814,0.85,1.691,1.111,2.63
	C32.367,49.524,32.5,50.498,32.5,51.508z M21.5,42.078c-0.863,0-1.7,0.11-2.502,0.338c-0.805,0.226-1.557,0.545-2.254,0.953
	c-0.7,0.409-1.336,0.901-1.909,1.476s-1.065,1.211-1.476,1.907c-0.41,0.699-0.728,1.449-0.949,2.25
	c-0.224,0.808-0.334,1.64-0.334,2.504c0,0.865,0.111,1.699,0.334,2.502c0.223,0.803,0.539,1.551,0.949,2.248
	c0.41,0.689,0.9,1.328,1.476,1.904s1.21,1.068,1.911,1.475c0.697,0.406,1.447,0.725,2.252,0.949
	c0.805,0.227,1.639,0.338,2.504,0.338s1.699-0.111,2.502-0.338c0.805-0.225,1.555-0.543,2.254-0.949s1.333-0.898,1.908-1.475
	c0.574-0.576,1.066-1.215,1.475-1.904c0.41-0.697,0.729-1.445,0.957-2.248c0.225-0.805,0.338-1.637,0.338-2.502
	c0-0.864-0.113-1.698-0.338-2.504c-0.229-0.801-0.547-1.551-0.957-2.25c-0.408-0.696-0.899-1.333-1.475-1.907
	c-0.575-0.572-1.209-1.064-1.908-1.476c-0.699-0.408-1.449-0.728-2.254-0.953C23.199,42.188,22.365,42.078,21.5,42.078z
	 M24.256,50.586l-3.729-3.668h2.549l4.721,4.59l-4.721,4.578h-2.549l3.729-3.668H16v-1.832H24.256z"/>
</svg>
