<?xml version="1.0" encoding="utf-8"?>
<!-- Generator: Adobe Illustrator 16.0.0, SVG Export Plug-In . SVG Version: 6.00 Build 0)  -->
<!DOCTYPE svg PUBLIC "-//W3C//DTD SVG 1.1//EN" "http://www.w3.org/Graphics/SVG/1.1/DTD/svg11.dtd">
<svg version="1.1" id="Layer_1" xmlns="http://www.w3.org/2000/svg" xmlns:xlink="http://www.w3.org/1999/xlink" x="0px" y="0px"
	 width="34px" height="34px" viewBox="4.5 129.5 34 34" enable-background="new 4.5 129.5 34 34" xml:space="preserve">
<g>
	<path opacity="0.75" fill="#FFFFFF" enable-background="new    " d="M21.5,162C12.953,162,6,155.046,6,146.5S12.953,131,21.5,131
		c8.546,0,15.5,6.954,15.5,15.5S30.046,162,21.5,162z"/>
	<g>
		<path fill="#333333" d="M27.495,146.605c-0.029,0.233-0.054,0.461-0.074,0.686c-0.021,0.223-0.061,0.443-0.116,0.662l1.782,1.41
			l-1.412,2.281l-2.006-0.826c-0.162,0.154-0.334,0.303-0.517,0.439c-0.18,0.139-0.362,0.268-0.546,0.387l0.223,2.196l-2.611,0.658
			l-0.807-1.963c-0.234-0.015-0.469-0.028-0.707-0.042c-0.236-0.016-0.479-0.057-0.727-0.129l-1.35,1.678l-2.26-1.422l0.784-1.889
			c-0.177-0.178-0.338-0.359-0.481-0.553c-0.146-0.191-0.275-0.396-0.39-0.615l-2.153,0.235l-0.627-2.61l1.953-0.773
			c0-0.51,0.063-0.994,0.19-1.453l-1.72-1.348l1.423-2.26l1.975,0.773c0.142-0.128,0.294-0.253,0.457-0.377
			c0.162-0.124,0.328-0.242,0.498-0.355l-0.308-2.195l2.591-0.7l0.913,1.983c0.48,0,0.974,0.07,1.477,0.213l1.443-1.782l2.281,1.411
			l-0.85,2.025c0.143,0.184,0.281,0.364,0.42,0.541c0.139,0.178,0.256,0.357,0.354,0.541l2.294-0.254l0.605,2.577L27.495,146.605z
			 M21.507,142.809c-0.519,0-1.002,0.101-1.455,0.303c-0.453,0.201-0.848,0.472-1.184,0.812c-0.337,0.341-0.603,0.733-0.798,1.183
			c-0.194,0.449-0.291,0.922-0.291,1.418c0,0.516,0.101,1,0.304,1.453c0.201,0.453,0.472,0.85,0.812,1.188
			c0.34,0.34,0.733,0.605,1.185,0.801c0.449,0.195,0.922,0.292,1.416,0.292c0.519,0,1.004-0.099,1.461-0.297
			s0.854-0.467,1.188-0.808c0.336-0.338,0.603-0.73,0.796-1.178c0.193-0.445,0.292-0.916,0.292-1.41
			c0-0.523-0.099-1.014-0.297-1.471c-0.198-0.455-0.468-0.854-0.808-1.193s-0.735-0.605-1.188-0.801
			C22.485,142.904,22.009,142.809,21.507,142.809z M22.716,145.927c0.101,0.214,0.148,0.419,0.148,0.615
			c0,0.155-0.023,0.306-0.074,0.446c-0.119,0.359-0.34,0.621-0.658,0.785c-0.205,0.104-0.414,0.158-0.625,0.158
			c-0.071,0-0.142-0.008-0.207-0.021c-0.067-0.015-0.137-0.032-0.207-0.054c-0.348-0.112-0.609-0.34-0.787-0.68
			c-0.119-0.226-0.18-0.445-0.18-0.656c0-0.136,0.021-0.267,0.063-0.394c0.113-0.347,0.341-0.619,0.68-0.817
			c0.198-0.084,0.403-0.127,0.616-0.127c0.254,0,0.492,0.063,0.711,0.187C22.415,145.494,22.589,145.68,22.716,145.927z"/>
	</g>
	<path fill="#B1B1B1" d="M21.5,131.5c8.271,0,15,6.729,15,15s-6.729,15-15,15s-15-6.729-15-15S13.229,131.5,21.5,131.5 M21.5,130.5
		c-8.836,0-16,7.164-16,16c0,8.837,7.164,16,16,16c8.837,0,16-7.163,16-16C37.5,137.664,30.337,130.5,21.5,130.5L21.5,130.5z"/>
</g>
</svg>
