<?xml version="1.0" encoding="utf-8"?>
<!-- Generator: Adobe Illustrator 16.0.0, SVG Export Plug-In . SVG Version: 6.00 Build 0)  -->
<!DOCTYPE svg PUBLIC "-//W3C//DTD SVG 1.1//EN" "http://www.w3.org/Graphics/SVG/1.1/DTD/svg11.dtd">
<svg version="1.1" id="Layer_1" xmlns="http://www.w3.org/2000/svg" xmlns:xlink="http://www.w3.org/1999/xlink" x="0px" y="0px"
	 width="15px" height="15px" viewBox="0 0 15 15" enable-background="new 0 0 15 15" xml:space="preserve">
<g>
	<path fill="#FFFFFF" d="M6.359,9.402l5.215-6.729c0.05-0.06,0.128-0.09,0.233-0.09c0.041,0,0.09,0.02,0.151,0.06l1.206,0.928
		c0.05,0.04,0.085,0.095,0.105,0.165c0,0.096-0.02,0.163-0.06,0.204l-6.729,8.644L1.8,7.533c-0.05-0.06-0.073-0.127-0.068-0.199
		c0.005-0.073,0.035-0.135,0.09-0.185L2.93,6.132c0.05-0.05,0.113-0.075,0.188-0.075c0.08,0,0.146,0.025,0.196,0.075L6.359,9.402z"
		/>
</g>
</svg>
